PathFileType	4	(X/Y/Z)	s11c0201.trc
DataRate	CameraRate	NumFrames	NumMarkers	Units	OrigDataRate	OrigDataStartFrame	OrigNumFrames
200	200	6	48	mm	200	250	2000
Frame#	Time	racr			lacr			c7			jug			rlel			rdr			llel			ldr			s2			lic			ric			lasi			rasi			rpsi			lpsi			rgt			lgt			rth1			rth2			rth3			rth4			rlfc			rmfc			rsh1			rsh2			rsh3			rsh4			rlmal			rcal			rtoe			rmt5			lth1			lth2			lth4			lth3			llfc			lmfc			llmal			lcal			lmt5			lsh1			lsh2			lsh3			lsh4			ltoe			SBIKE			LBIKE			RBIKE			
		X1	Y1	Z1	X2	Y2	Z2	X3	Y3	Z3	X4	Y4	Z4	X5	Y5	Z5	X6	Y6	Z6	X7	Y7	Z7	X8	Y8	Z8	X9	Y9	Z9	X10	Y10	Z10	X11	Y11	Z11	X12	Y12	Z12	X13	Y13	Z13	X14	Y14	Z14	X15	Y15	Z15	X16	Y16	Z16	X17	Y17	Z17	X18	Y18	Z18	X19	Y19	Z19	X20	Y20	Z20	X21	Y21	Z21	X22	Y22	Z22	X23	Y23	Z23	X24	Y24	Z24	X25	Y25	Z25	X26	Y26	Z26	X27	Y27	Z27	X28	Y28	Z28	X29	Y29	Z29	X30	Y30	Z30	X31	Y31	Z31	X32	Y32	Z32	X33	Y33	Z33	X34	Y34	Z34	X35	Y35	Z35	X36	Y36	Z36	X37	Y37	Z37	X38	Y38	Z38	X39	Y39	Z39	X40	Y40	Z40	X41	Y41	Z41	X42	Y42	Z42	X43	Y43	Z43	X44	Y44	Z44	X45	Y45	Z45	X46	Y46	Z46	X47	Y47	Z47	X48	Y48	Z48	
250	1.2500	486.454049	1367.933237	-62.699685	522.997046	1326.254931	-369.056253	449.337900	1440.823147	-223.607146	452.668067	1256.955224	-216.973185	525.877064	1117.833811	62.249813	752.215198	976.752959	-48.111769	490.134973	1114.130603	-592.434206	748.019485	960.887096	-508.198015	-126.104781	1230.452015	-288.909545	55.893778	1211.683510	-415.903982	86.937513	1227.207024	-60.882095	119.459289	1154.027266	-442.696606	115.626232	1161.304558	-103.862653	-73.047193	1299.710116	-223.167956	-76.887923	1293.167085	-318.115453	57.260021	1090.692965	-57.279263	4.750958	1098.167001	-479.818325	188.658133	1003.721929	-105.535903	253.496853	963.505901	-79.313711	304.272804	893.876747	-95.446013	274.803090	991.978262	-90.010183	384.065890	820.661183	-118.099386	373.247059	794.261893	-242.519654	358.231707	660.476728	-92.017871	361.511527	573.822249	-106.289510	324.671166	494.514537	-98.853774	380.253286	570.808810	-141.253336	282.645457	362.036542	-98.771225	216.391858	328.020157	-140.010125	503.363724	351.563925	-153.186874	444.291557	312.304568	-79.371076	125.628448	1005.189090	-493.800722	203.644234	969.670555	-489.511276	227.263996	996.175467	-479.987867	255.642771	896.068594	-488.791798	345.910149	792.980544	-462.045042	358.366676	788.175381	-334.922615	43.963929	497.992097	-415.842347	-24.074657	496.172288	-379.674283	103.787328	332.418007	-447.574407	263.739790	698.322605	-476.511648	223.340103	626.685475	-453.011569	149.269767	578.912636	-445.760731	246.795013	611.209969	-426.229879	193.801089	290.388448	-383.637650	-214.928650	956.954155	-257.447809	-17.760499	80.899800	-461.011319	-17.811885	80.812153	-62.063623	
251	1.2550	488.256046	1368.308551	-63.590397	522.677865	1328.538468	-371.654338	449.887020	1442.233930	-224.513675	454.508719	1258.308325	-218.992782	526.413704	1118.493580	62.717558	751.973241	976.815469	-48.728542	489.203567	1114.193727	-592.503283	747.791038	960.690665	-508.459127	-125.125039	1229.940784	-287.342236	56.065289	1212.888816	-414.997406	88.263273	1226.113528	-59.858435	119.824017	1155.078910	-441.928605	116.931700	1160.091338	-103.086094	-71.613524	1298.711364	-221.664887	-76.919886	1293.091336	-316.312122	58.360967	1088.916778	-57.188915	6.310112	1099.488946	-479.549601	188.188307	998.904447	-105.456016	252.569567	958.765219	-79.174110	302.099173	888.203133	-95.364086	274.314562	986.870955	-90.048951	380.287375	813.970959	-117.910390	369.234098	787.769389	-241.903273	354.905132	653.569994	-91.961931	358.922229	566.857473	-106.488119	322.717226	487.269056	-99.153705	377.566431	564.183168	-141.299247	281.501919	354.494540	-98.956346	215.455935	320.496243	-140.134276	502.552455	344.546600	-152.837885	443.301256	304.899863	-79.374263	128.211575	1007.915183	-493.448725	206.622233	973.354570	-489.094006	229.891907	1000.187926	-479.456885	259.544013	900.483699	-488.571672	351.002915	798.655425	-462.113239	362.812097	793.820179	-334.751806	47.345893	505.464459	-416.513239	-20.605196	504.650248	-380.314254	105.258242	339.120599	-447.605947	268.576399	704.390970	-476.692171	228.198482	633.594108	-453.940513	153.257952	585.749380	-446.230787	250.868112	617.448081	-426.334879	194.542182	296.078056	-383.363495	-214.878661	956.985091	-257.432068	-17.759196	80.901125	-461.012080	-17.804752	80.813290	-62.058831	
252	1.2600	489.898492	1368.689268	-64.471352	522.266516	1330.993737	-374.221909	450.341792	1443.817191	-225.604620	456.265072	1260.089201	-221.073095	527.041315	1119.104635	63.182772	751.738629	976.864177	-49.475348	488.564479	1114.400392	-592.685336	747.774066	960.632197	-508.767850	-124.104974	1229.347657	-286.171791	56.805012	1214.115583	-414.535522	89.830834	1224.935976	-59.257007	120.232830	1156.186195	-441.130893	118.321981	1158.897603	-102.432679	-70.604496	1297.835190	-220.338709	-76.371254	1292.937565	-314.988365	59.413485	1087.100418	-57.102297	7.806225	1100.639470	-479.145266	187.689760	993.637290	-105.585479	251.443866	953.867033	-78.953044	299.666927	882.580780	-95.412006	273.715276	981.260953	-89.889845	376.266608	807.156007	-117.968044	365.134481	781.199642	-241.898410	351.189561	646.684667	-91.855971	355.820081	560.146192	-106.444787	320.353589	480.184229	-99.259555	374.740867	557.488865	-141.289449	280.102480	347.144167	-99.029368	214.250981	312.998871	-140.279050	501.258154	337.051438	-152.951329	442.116831	297.653069	-79.437755	130.766461	1010.622713	-493.081009	209.612929	977.085829	-488.693947	232.500749	1004.222247	-478.904227	263.529674	904.894446	-488.322338	356.162832	804.440894	-462.111117	367.370508	799.259030	-334.694427	50.933562	513.265343	-417.621914	-16.874804	513.022144	-380.794494	106.884536	345.856157	-447.762984	273.441623	710.700218	-476.770324	232.569478	640.274430	-454.060850	157.389723	592.673516	-446.649120	255.154706	623.888526	-426.567451	195.633705	301.732459	-383.404663	-214.819334	957.033289	-257.328683	-17.697222	80.823031	-461.091527	-17.796417	80.798729	-62.055441	
253	1.2650	491.529848	1368.959505	-65.208394	521.712257	1333.592978	-376.811097	450.668025	1445.521022	-226.779004	458.042443	1261.724412	-223.309618	527.800502	1119.776358	63.647643	751.541410	976.913682	-50.202922	487.969601	1114.618888	-592.870800	747.890109	960.692397	-508.816966	-123.142918	1228.650451	-284.768733	57.331943	1215.278681	-414.021394	91.318000	1223.838476	-58.700071	120.513187	1157.079921	-440.095524	119.715052	1157.645014	-101.784132	-69.668425	1297.036381	-218.911320	-75.918644	1292.593645	-313.581011	60.484297	1085.261821	-56.912196	9.312883	1101.877026	-478.814907	186.971433	988.799071	-105.865870	250.190874	948.994732	-78.766877	296.829075	876.246751	-96.099624	272.835349	976.044154	-89.598819	371.761212	800.575468	-117.759572	359.044225	773.421753	-239.709995	347.219792	639.775678	-91.744350	352.502482	553.277196	-106.255724	317.588431	473.062771	-99.250021	371.476399	550.958700	-141.074780	278.487027	339.751735	-98.949304	212.584036	305.642898	-140.292770	499.472565	329.530521	-153.228508	440.545002	290.416495	-79.474530	133.249071	1013.340582	-492.687896	212.538968	980.920990	-488.232957	235.051693	1008.322953	-478.376379	267.544148	909.485166	-488.133422	361.344989	810.440983	-462.066382	369.827771	804.389419	-335.363517	54.629217	520.533047	-417.802990	-12.917200	521.297384	-381.113019	108.767370	352.723154	-447.965825	278.346729	717.139019	-476.874002	236.615446	646.248493	-453.658907	161.717233	599.625522	-447.056249	259.584402	630.395855	-426.784770	197.090922	307.440932	-383.530075	-214.748420	957.066686	-257.307042	-17.689800	80.818089	-461.095546	-17.789155	80.800333	-62.048224	
254	1.2700	493.070469	1369.216850	-65.931229	521.080475	1336.363968	-379.474172	450.947226	1447.316732	-228.001903	459.701444	1263.707621	-225.553474	528.542281	1120.546306	64.063856	751.481960	976.974209	-50.846633	487.443564	1114.778055	-592.983673	748.168479	960.881982	-508.795791	-122.154936	1227.903041	-283.375355	57.471670	1216.631362	-413.249816	92.881511	1222.632639	-58.124655	120.780350	1158.283104	-439.312845	121.274359	1156.420158	-101.165134	-68.673447	1296.089359	-217.489754	-75.407303	1292.292868	-312.085075	61.392162	1083.375457	-56.769873	10.688542	1103.056618	-478.442484	186.053514	983.723471	-105.713297	248.748579	944.105570	-78.548563	293.965518	870.630063	-95.968811	271.895403	970.596305	-89.627148	367.202367	793.857103	-117.680948	354.107493	766.594275	-239.370874	342.884101	633.118286	-91.575080	348.776968	546.572616	-105.997638	314.486312	466.089444	-99.021966	367.870757	544.250193	-140.968643	276.491959	332.531037	-98.783728	210.645685	298.322519	-140.248928	497.554108	323.491851	-152.245466	438.674683	283.186928	-79.497036	135.680980	1016.151091	-492.298354	215.440236	984.826795	-487.819095	237.583302	1012.444796	-477.897339	271.490645	914.101503	-487.804339	366.480937	816.595352	-462.044794	377.290930	810.670027	-334.953849	58.806383	527.888414	-418.161463	-8.714353	529.369098	-381.423495	110.963040	359.150758	-447.831361	283.402771	723.656574	-477.063223	241.232249	653.036130	-453.865937	166.158879	606.532128	-447.405523	264.099255	636.946486	-426.884280	198.931497	313.269113	-383.604551	-214.684507	957.122424	-257.248621	-17.725895	80.924180	-461.007742	-17.757340	80.800677	-62.043435	
255	1.2750	494.545440	1369.567549	-66.735968	520.348890	1339.215748	-382.179661	451.050225	1449.175933	-229.329645	461.302560	1265.843983	-227.737869	529.441713	1121.379674	64.390127	751.424365	976.845034	-51.200527	486.903396	1114.874804	-593.072596	748.565911	961.186332	-508.859960	-121.273904	1227.065839	-281.930392	57.992657	1217.884377	-412.896312	94.460702	1221.382071	-57.565290	121.041066	1159.391616	-438.367268	122.657381	1155.130579	-100.699608	-67.700972	1295.097790	-216.029027	-74.960527	1291.925965	-310.541906	62.272125	1081.528044	-56.515045	11.965535	1104.200354	-478.133329	185.011274	978.882314	-106.378906	247.007176	939.166158	-78.281163	290.860866	864.900879	-95.840100	270.523069	965.311741	-88.958059	362.458109	787.035879	-117.661623	348.786854	759.945920	-238.945209	338.350399	626.350796	-91.348209	344.866803	540.054822	-105.770545	310.980631	459.255585	-98.820384	364.018998	537.816344	-140.570965	274.226379	325.378280	-98.788732	208.520426	291.081205	-140.243313	495.422940	315.178695	-153.343581	436.505846	275.973642	-79.469325	138.002749	1018.695058	-491.617403	218.244662	988.733983	-487.393228	239.944963	1016.576819	-477.276607	275.194553	919.008217	-487.410524	371.576090	822.943594	-461.924658	383.017764	817.315072	-334.399488	62.952185	535.252580	-418.644744	-4.360065	537.337609	-381.677231	113.461108	365.772671	-447.842107	288.305129	730.398461	-477.061689	245.910740	659.716769	-454.037337	170.675115	613.624079	-447.687572	269.119953	644.185440	-427.613030	201.154710	319.267235	-384.019594	-214.618091	957.115468	-257.065841	-17.677368	80.852904	-461.069852	-17.754479	80.810578	-62.043992	
